# xmcd
#
# Track frame offsets:
#	150
#	14428
#	27711
#	42095
#	56430
#	71104
#	83536
#	98009
#	109850
#	122247
#	138466
#	153293
#	167822
#	182136
#	195808
#	208800
#	222622
#	237954
#	252296
#	265641
#	277852
#	290227
#	302560
#	315992
#	329155
#
# Disc length: 4567 seconds
#
# Revision: 0
# Processed by: cddbd v1.4PL0 Copyright (c) Steve Scherf et al.
# Submitted via: dBpowerAMP V4.0
#
DISCID=6f11d519
DTITLE=Kansas Joe McCoy - One In A Hundred
DYEAR=1999
DGENRE=Acoustic Blues
TTITLE0=When The Levee Breaks
TTITLE1=I'm Wild About My Stuff
TTITLE2=My Mary Blues
TTITLE3=Cherry Ball Blues
TTITLE4=Botherin' That Thing
TTITLE5=Pile Drivin' Blues
TTITLE6=Preachers Blues
TTITLE7=Shake Mattie
TTITLE8=My Wash Woman's Gone
TTITLE9=I'm Going Crazy
TTITLE10=Dresser Drawer Blues
TTITLE11=Someday I'll Be In The Clay
TTITLE12=Evil Devil Woman Blues
TTITLE13=Going Back Home Blues
TTITLE14=Meat Cutter Blues
TTITLE15=Please Baby
TTITLE16=One In A Hundred
TTITLE17=One More Greasing
TTITLE18=What's The Matter With You
TTITLE19=My Babe, My Babe
TTITLE20=Look Who's Coming Down The Road
TTITLE21=The World Is A Hard Place To Live In
TTITLE22=Well, Well
TTITLE23=You Done Tore Your Pants With Me
TTITLE24=I Love You Baby
EXTD=william hale
EXTT0=
EXTT1=
EXTT2=
EXTT3=
EXTT4=
EXTT5=
EXTT6=
EXTT7=
EXTT8=
EXTT9=
EXTT10=
EXTT11=
EXTT12=
EXTT13=
EXTT14=
EXTT15=
EXTT16=
EXTT17=
EXTT18=
EXTT19=
EXTT20=
EXTT21=
EXTT22=
EXTT23=
EXTT24=
PLAYORDER=
